PERFORMER "placeholder"
TITLE "placeholder"
FILE "input.mp3" MP3
  TRACK 00 AUDIO
    TITLE "Chapter 01 - Title 01"
    INDEX 01 00:00:00
  TRACK 01 AUDIO
    TITLE "Chapter 02 - Title 02"
    INDEX 01 04:19:19
  TRACK 02 AUDIO
    TITLE "Chapter 03 - Title 03"
    INDEX 01 06:28:29
  TRACK 03 AUDIO
    TITLE "Chapter 04 - Title 04"
    INDEX 01 09:16:41
